<?xml version="1.0" standalone="no"?>
<!DOCTYPE svg PUBLIC "-//W3C//DTD SVG 20010904//EN"
 "http://www.w3.org/TR/2001/REC-SVG-20010904/DTD/svg10.dtd">
<svg version="1.0" xmlns="http://www.w3.org/2000/svg"
 width="192.000000pt" height="192.000000pt" viewBox="0 0 192.000000 192.000000"
 preserveAspectRatio="xMidYMid meet">
<metadata>
Created by potrace 1.14, written by Peter Selinger 2001-2017
</metadata>
<g transform="translate(0.000000,192.000000) scale(0.100000,-0.100000)"
fill="#000000" stroke="none">
<path d="M1524 1885 c-12 -9 -14 -14 -6 -15 7 0 11 -4 8 -8 -3 -5 1 -9 9 -9 8
0 12 4 9 8 -2 4 2 10 8 12 10 4 10 6 0 6 -7 1 -10 6 -7 11 9 14 2 12 -21 -5z"/>
<path d="M56 1871 c-4 -7 -5 -15 -2 -18 9 -9 19 4 14 18 -4 11 -6 11 -12 0z"/>
<path d="M737 1866 c-6 -15 19 -30 34 -20 5 3 9 12 9 20 0 18 -36 18 -43 0z
m33 0 c0 -3 -4 -8 -10 -11 -5 -3 -10 -1 -10 4 0 6 5 11 10 11 6 0 10 -2 10 -4z"/>
<path d="M1844 1803 c2 -10 11 -18 22 -18 10 0 20 8 22 18 3 12 -3 17 -21 17
-18 0 -25 -5 -23 -17z m36 -3 c0 -5 -4 -10 -10 -10 -5 0 -10 5 -10 10 0 6 5
10 10 10 6 0 10 -4 10 -10z"/>
<path d="M1185 1759 c-14 -43 45 -66 61 -24 8 19 -13 45 -37 45 -10 0 -21 -10
-24 -21z m45 -14 c0 -8 -7 -15 -15 -15 -8 0 -15 7 -15 15 0 8 7 15 15 15 8 0
15 -7 15 -15z"/>
<path d="M471 1660 c-17 -10 -7 -40 13 -40 7 0 16 6 19 14 8 19 -15 37 -32 26z
m24 -20 c-3 -5 -10 -10 -16 -10 -5 0 -9 5 -9 10 0 6 7 10 16 10 8 0 12 -4 9
-10z"/>
<path d="M1564 1605 c-3 -8 -3 -19 0 -24 10 -16 36 -1 36 20 0 22 -28 26 -36
4z m26 -5 c0 -5 -5 -10 -11 -10 -5 0 -7 5 -4 10 3 6 8 10 11 10 2 0 4 -4 4
-10z"/>
<path d="M953 1570 c-3 -11 -11 -20 -19 -20 -25 0 -23 -18 6 -51 l29 -34 33
32 33 33 -33 30 c-39 35 -42 36 -49 10z"/>
<path d="M53 1503 c4 -3 1 -13 -6 -21 -9 -13 -9 -14 1 -8 8 5 12 1 12 -10 0
-16 1 -16 15 2 15 19 15 19 9 -1 -4 -15 -3 -16 4 -6 5 7 7 22 4 33 -4 15 -7
17 -13 6 -7 -10 -9 -10 -9 0 0 6 -5 12 -12 12 -6 0 -8 -3 -5 -7z"/>
<path d="M253 1446 c-13 -13 -23 -28 -23 -32 0 -11 45 -54 55 -54 11 0 55 44
55 55 0 12 -44 55 -56 55 -5 0 -19 -11 -31 -24z"/>
<path d="M1603 1446 c-13 -13 -23 -28 -23 -32 0 -11 45 -54 55 -54 11 0 55 44
55 55 0 12 -44 55 -56 55 -5 0 -19 -11 -31 -24z"/>
<path d="M487 1353 c-4 -3 -7 -156 -7 -340 0 -291 2 -334 15 -340 9 -3 19 -2
23 2 10 10 11 647 0 668 -9 18 -20 22 -31 10z"/>
<path d="M714 1349 c-4 -7 -7 -156 -8 -332 -1 -327 3 -367 36 -340 11 9 13 73
13 335 0 178 -4 329 -8 336 -10 15 -24 16 -33 1z"/>
<path d="M1173 1348 c-4 -7 -8 -158 -8 -336 0 -255 2 -326 13 -334 32 -27 35
7 35 335 0 178 -3 329 -7 335 -9 16 -23 15 -33 0z"/>
<path d="M1403 1348 c-16 -21 -11 -673 5 -672 6 1 17 2 22 3 7 0 9 116 8 338
-3 331 -7 367 -35 331z"/>
<path d="M1844 1328 c3 -10 1 -18 -4 -18 -5 0 -6 -8 -3 -17 4 -11 8 -13 11 -5
3 10 7 10 20 0 10 -8 13 -9 9 -1 -4 6 -1 14 5 16 8 3 7 6 -4 6 -9 1 -22 9 -28
19 -11 16 -11 16 -6 0z"/>
<path d="M826 1228 c-3 -7 -4 -159 -3 -338 2 -318 2 -325 22 -325 20 0 20 7
20 335 0 311 -1 335 -18 338 -9 2 -19 -2 -21 -10z"/>
<path d="M1055 1228 c-3 -7 -4 -159 -3 -338 3 -317 3 -325 23 -325 20 0 20 7
20 335 0 311 -1 335 -18 338 -9 2 -19 -3 -22 -10z"/>
<path d="M602 1198 c-5 -8 -9 -87 -9 -190 0 -150 2 -178 15 -183 8 -3 20 -1
25 4 11 11 13 353 2 370 -8 14 -20 14 -33 -1z"/>
<path d="M1285 1199 c-11 -17 -8 -360 4 -372 5 -5 16 -7 24 -4 11 4 14 39 15
174 0 92 -1 178 -4 191 -5 23 -28 30 -39 11z"/>
<path d="M374 1119 c-4 -7 -8 -158 -8 -337 -1 -253 2 -326 12 -334 8 -7 16 -8
23 -1 14 14 7 675 -8 680 -6 2 -15 -1 -19 -8z"/>
<path d="M1517 1123 c-4 -3 -7 -156 -7 -339 0 -330 3 -365 33 -335 14 14 18
636 5 664 -9 18 -20 22 -31 10z"/>
<path d="M939 1068 c-1 -29 -1 -282 0 -325 1 -26 5 -33 21 -33 11 0 20 3 21 8
1 11 1 323 0 350 -1 15 -7 22 -21 22 -14 0 -20 -7 -21 -22z"/>
<path d="M257 974 c-10 -11 -8 -372 2 -378 5 -4 16 -4 24 0 22 8 19 377 -3
382 -9 1 -19 0 -23 -4z"/>
<path d="M1633 972 c-14 -9 -17 -350 -3 -372 4 -7 15 -10 24 -7 15 6 16 29 14
193 -3 183 -7 204 -35 186z"/>
<path d="M253 416 c-13 -13 -23 -28 -23 -32 0 -11 45 -54 55 -54 11 0 55 44
55 55 0 12 -44 55 -56 55 -5 0 -19 -11 -31 -24z"/>
<path d="M1603 416 c-13 -13 -23 -28 -23 -32 0 -11 45 -54 55 -54 11 0 55 44
55 55 0 12 -44 55 -56 55 -5 0 -19 -11 -31 -24z"/>
<path d="M938 298 c-28 -32 -28 -48 -2 -48 14 0 20 -19 7 -21 -5 -1 -179 -2
-388 -3 -373 -1 -380 -1 -380 -21 0 -20 8 -20 783 -23 699 -2 783 0 789 13 3
9 2 19 -2 23 -3 4 -169 8 -368 8 -199 1 -369 2 -377 3 -11 1 -8 7 10 21 l25
19 -30 30 c-17 17 -32 31 -35 31 -3 0 -17 -14 -32 -32z"/>
<path d="M11 220 c-17 -10 -7 -40 13 -40 7 0 16 6 19 14 8 19 -15 37 -32 26z"/>
<path d="M80 220 c-7 -4 -10 -15 -7 -25 10 -24 72 -17 72 9 0 20 -41 31 -65
16z"/>
<path d="M1780 220 c-24 -15 -3 -40 35 -40 32 0 36 3 33 22 -3 24 -42 34 -68
18z"/>
<path d="M1881 217 c-14 -17 3 -41 23 -34 9 4 16 13 16 21 0 19 -26 28 -39 13z"/>
<path d="M558 129 c-6 -4 -8 -14 -5 -23 9 -22 122 -23 130 -1 4 8 1 18 -6 22
-15 10 -104 11 -119 2z"/>
<path d="M718 129 c-6 -4 -8 -14 -5 -23 5 -13 23 -16 101 -16 52 0 98 -4 101
-10 6 -10 -33 -14 -83 -10 -25 2 -41 -25 -24 -42 14 -14 300 -14 314 0 6 6 8
17 5 26 -4 11 -20 14 -61 13 -39 -1 -56 2 -56 11 0 9 27 12 100 12 93 0 100 1
100 20 0 11 -6 21 -12 21 -52 5 -472 3 -480 -2z"/>
<path d="M1241 127 c-5 -5 -7 -16 -4 -23 8 -21 122 -19 130 1 3 9 3 19 -1 22
-11 11 -115 10 -125 0z"/>
</g>
</svg>
